<svg width="105" height="68" viewBox="0 0 105 68" fill="none" xmlns="http://www.w3.org/2000/svg">
<path d="M31.1396 2.76162C26.6362 3.43887 17.9453 7.38238 16.359 8.3928C13.3884 10.2847 7.56309 16.1182 6.61845 17.4776C4.14297 21.0364 1.54866 24.6993 1.18823 29.1604C-6.54715 56.4626 25.2054 66.4587 46.647 66.5658C73.0713 69.4413 105.896 59.4502 104.981 27.5967C105.338 15.7503 90.0293 3.4587 78.0757 2.11313C60.1879 -1.24138 49.0957 -0.28451 31.1406 2.76261" fill="#2D2B2B"/>
<path d="M45.2795 14.4993C45.2795 13.7476 44.8112 13.9043 44.8112 13.3907C44.8112 12.9941 45.0656 12.8949 45.3201 12.8949C45.4508 12.8949 45.7469 12.9405 46.035 12.9405C46.2964 12.9405 46.5915 12.8949 46.7282 12.8949C46.9757 12.8949 47.2371 12.9941 47.2371 13.3907C47.2371 13.9033 46.7698 13.7476 46.7698 14.4993V17.1933C46.7698 17.935 47.2787 17.8438 47.2787 18.412C47.283 18.4721 47.2751 18.5325 47.2553 18.5894C47.2356 18.6464 47.2045 18.6987 47.1639 18.7432C47.1234 18.7878 47.0742 18.8236 47.0193 18.8484C46.9645 18.8733 46.9052 18.8867 46.845 18.8879C46.5905 18.8879 46.2955 18.8612 46.034 18.8612C45.7726 18.8612 45.4568 18.8879 45.1954 18.8879C45.136 18.8853 45.0777 18.8708 45.024 18.8453C44.9703 18.8199 44.9222 18.7839 44.8826 18.7396C44.8429 18.6952 44.8125 18.6434 44.7931 18.5872C44.7737 18.5309 44.7657 18.4714 44.7696 18.412C44.7696 17.8438 45.2785 17.935 45.2785 17.1933L45.2795 14.4993Z" fill="#F2ECE9"/>
<path d="M50.5166 15.7358C50.5166 14.7561 50.2622 14.5905 50.0354 14.5905C49.8086 14.5905 49.4858 14.6827 49.4858 15.3967V17.1934C49.4858 17.9261 49.8156 17.8438 49.8156 18.412C49.8156 18.7095 49.6096 18.8879 49.3967 18.8879C49.1422 18.8879 49.0006 18.8612 48.7571 18.8612C48.5135 18.8612 48.1313 18.8879 47.8708 18.8879C47.8114 18.8854 47.753 18.871 47.6992 18.8456C47.6454 18.8202 47.5972 18.7843 47.5574 18.7399C47.5176 18.6956 47.4871 18.6437 47.4677 18.5874C47.4482 18.5311 47.4402 18.4715 47.4441 18.412C47.4441 17.8438 47.9184 17.9261 47.9184 17.1934V14.4993C47.9184 13.7477 47.4649 13.9044 47.4649 13.3907C47.4649 12.9941 47.7263 12.895 47.9807 12.895H48.5303C49.4443 12.895 49.2928 13.589 49.6195 13.589C49.8799 13.589 50.08 12.8831 51.0008 12.8831C51.8534 12.8831 52.1277 13.7358 52.1277 14.7898V17.1904C52.1277 17.9232 52.4921 17.8409 52.4921 18.409C52.4921 18.7065 52.3138 18.885 52.1346 18.885C51.8801 18.885 51.7296 18.8582 51.3425 18.8582C51.0335 18.8582 50.8612 18.885 50.6137 18.885C50.3869 18.885 50.2017 18.7114 50.2017 18.409C50.2017 17.8409 50.5176 17.9321 50.5176 17.0982L50.5166 15.7358Z" fill="#F2ECE9"/>
<path d="M54.4537 12.6896C54.4537 11.6772 53.5724 11.8457 53.5724 11.1189C53.5724 10.5606 54.0516 10.4178 54.5319 10.4178C54.9725 10.4178 55.9964 10.4952 56.7103 10.4952C57.4242 10.4952 57.8896 10.4178 58.5511 10.4178C60.0027 10.4178 61.5068 11.0277 61.5068 13.0396C61.5068 15.5324 59.4581 15.8567 57.6302 15.8567C57.3846 15.8567 57.2678 15.9994 57.2678 16.4516C57.2678 17.5552 58.2273 17.4253 58.2273 18.2305C58.2273 18.6589 57.8253 18.9058 57.4104 18.9058C56.9301 18.9058 56.3737 18.8671 55.8805 18.8671C55.3874 18.8671 54.7913 18.9058 54.2962 18.9058C53.9071 18.9058 53.4922 18.6589 53.4922 18.2305C53.4922 17.4253 54.4517 17.5552 54.4517 16.5042L54.4537 12.6896ZM58.5758 13.1695C58.5758 12.5468 58.3164 11.9796 57.7074 11.9796C57.3312 11.9796 57.1886 12.3296 57.1886 13.1695C57.1886 14.0093 57.3183 14.3386 57.7074 14.3386C58.3164 14.3425 58.5758 13.9132 58.5758 13.1734V13.1695Z" fill="#F2ECE9"/>
<path d="M67.9609 12.6896C67.9609 11.6246 67.0796 11.8457 67.0796 11.1189C67.0796 10.5606 67.5599 10.4178 68.0391 10.4178C68.2857 10.4178 68.5342 10.4823 68.8432 10.4823C69.1521 10.4823 69.4264 10.4178 69.6858 10.4178C70.1522 10.4178 70.6582 10.5606 70.6582 11.1189C70.6582 11.8457 69.767 11.6246 69.767 12.6896V15.1299C69.767 17.7001 68.2817 18.9208 66.1379 18.9208C64.0506 18.9208 62.2762 18.0511 62.2762 15.2598V12.6896C62.2762 11.6246 61.385 11.8457 61.385 11.1189C61.385 10.5606 61.89 10.4178 62.3703 10.4178C62.6039 10.4178 63.1476 10.4823 63.705 10.4823C64.2001 10.4823 64.7556 10.4178 65.0022 10.4178C65.4973 10.4178 65.9736 10.5606 65.9736 11.1189C65.9736 11.8457 65.0923 11.6246 65.0923 12.6896V15.0129C65.0923 16.0521 65.5329 16.9217 66.4538 16.9217C67.4262 16.9217 67.9698 16.1552 67.9698 15.1299L67.9609 12.6896Z" fill="#F2ECE9"/>
<path d="M74.7407 16.5102C74.7407 17.5613 75.7002 17.4314 75.7002 18.2366C75.7002 18.6649 75.2982 18.9118 74.8833 18.9118C74.404 18.9118 73.8465 18.8732 73.3534 18.8732C72.8603 18.8732 72.2642 18.9118 71.7691 18.9118C71.381 18.9118 70.9661 18.6649 70.9661 18.2366C70.9661 17.4314 71.9246 17.5613 71.9246 16.5102V12.6896C71.9246 11.6246 71.0433 11.8457 71.0433 11.1189C71.0433 10.5606 71.5235 10.4178 72.0028 10.4178C72.2622 10.4178 72.8197 10.4823 73.3118 10.4823C74.4268 10.4823 75.516 10.4178 76.6438 10.4178C77.6677 10.4178 79.0203 11.2488 79.0203 12.4427C79.0203 13.3778 78.7351 13.9747 77.9182 14.4943C78.2034 14.6371 79.0332 15.1299 79.2401 15.8964C79.357 16.3377 79.3827 17.1161 79.6807 17.5058C79.8887 17.7913 80.3422 17.7656 80.3422 18.1939C80.3422 18.9981 79.2401 19.0507 78.6589 19.0507C75.1932 19.0507 76.7399 15.4542 75.2239 15.4542C74.8476 15.4542 74.7436 15.8696 74.7436 16.0908L74.7407 16.5102ZM74.806 13.6147C74.8027 13.6633 74.8097 13.712 74.8267 13.7577C74.8438 13.8033 74.8703 13.8447 74.9047 13.8792C74.939 13.9136 74.9803 13.9404 75.0258 13.9575C75.0713 13.9747 75.1199 13.9819 75.1684 13.9787C75.4536 13.9787 75.8943 13.7704 75.8943 12.9276C75.8943 12.0847 75.4279 11.8497 75.0783 11.8497C74.9872 11.8497 74.806 11.928 74.806 12.0966V13.6147Z" fill="#F2ECE9"/>
<path d="M81.1581 15.3808C80.8858 15.3808 80.7036 15.0427 80.7036 14.6015C80.7036 13.9659 81.0413 13.3818 81.3908 13.3818H84.7743C85.0208 13.3818 85.2149 13.7319 85.2149 14.1751C85.2149 14.8375 84.8911 15.3828 84.5406 15.3828L81.1581 15.3808Z" fill="#F2ECE9"/>
<path d="M84.7119 24.1404C83.4108 24.1404 82.3275 22.6778 82.3275 20.9217C82.3275 19.0178 83.5059 17.9875 84.803 17.9875C86.0427 17.9875 87.126 19.1923 87.126 20.9861C87.13 22.9078 86.0259 24.1404 84.7119 24.1404ZM85.5219 21.7497C85.5219 21.2063 85.107 19.3212 84.4802 19.3212C84.0921 19.3212 83.9762 19.698 83.9762 20.1492C83.9762 20.885 84.2624 22.7333 84.9664 22.7333C85.3546 22.7333 85.5219 22.2276 85.5219 21.7497Z" fill="#F2ECE9"/>
<path d="M88.9628 22.4071C88.9628 23.1528 89.4668 23.0606 89.4668 23.6307C89.4714 23.6907 89.4638 23.7509 89.4444 23.8078C89.4251 23.8648 89.3944 23.9172 89.3542 23.9618C89.314 24.0065 89.2652 24.0426 89.2107 24.0678C89.1562 24.093 89.0971 24.1069 89.0371 24.1086C88.7856 24.1086 88.4925 24.0809 88.2331 24.0809C87.9736 24.0809 87.6617 24.1086 87.4023 24.1086C87.343 24.1056 87.285 24.0908 87.2315 24.065C87.1781 24.0392 87.1303 24.003 87.091 23.9585C87.0517 23.914 87.0217 23.8621 87.0027 23.8058C86.9837 23.7495 86.9762 23.69 86.9805 23.6307C86.9805 23.0606 87.4845 23.1528 87.4845 22.4071V19.6982C87.4845 18.9446 87.0211 19.1032 87.0211 18.5856C87.0211 18.189 87.2736 18.0899 87.5251 18.0899C87.6617 18.0899 87.9538 18.1355 88.2182 18.1355C89.144 18.1355 89.7035 18.0076 90.5273 18.0076C91.065 18.0076 91.1333 18.9089 91.1333 19.2768C91.1333 19.607 91.0789 19.9114 90.8274 19.9114C90.3639 19.9114 90.4115 19.1112 89.6213 19.1112C89.2054 19.1112 89.0153 19.1846 89.0153 19.5703C89.0153 20.2644 89.0292 20.4716 89.2738 20.4716C89.6421 20.4716 89.4916 19.7914 89.8391 19.7914C90.2818 19.7914 90.2818 20.656 90.2818 21.125C90.2818 21.5296 90.2075 22.541 89.8461 22.541C89.3965 22.541 89.6966 21.603 89.1529 21.603C89.0173 21.603 88.9698 21.7686 88.9698 21.9996L88.9628 22.4071Z" fill="#F2ECE9"/>
<path d="M22.8982 45.5347C22.8982 44.3448 21.8585 44.5431 21.8585 43.6825C21.8585 43.024 22.4249 42.8555 22.9903 42.8555C23.5101 42.8555 24.7182 42.9477 25.5588 42.9477C26.1708 42.9477 26.8283 42.9318 27.5016 42.9318C29.1988 42.9318 30.9881 43.1926 30.9881 45.3969C30.9881 46.2893 30.4375 46.8218 29.9325 47.2958C30.9574 47.7093 31.6456 48.7971 31.6456 49.8838C31.6456 51.3236 30.8346 52.8705 28.9235 52.8705C27.8838 52.8705 26.9204 52.7783 25.8955 52.7783C24.841 52.7783 23.7854 52.8705 22.715 52.8705C22.2565 52.8705 21.7674 52.579 21.7674 52.0772C21.7674 51.1273 22.8982 51.2839 22.8982 50.0405V45.5347ZM27.5273 45.8084C27.5273 44.8168 26.9778 44.5382 26.6253 44.5382C26.4272 44.5382 26.1668 44.8139 26.1668 45.8084C26.1668 46.8198 26.4272 47.0489 26.6718 47.0489C26.9817 47.0509 27.5273 46.8059 27.5273 45.8084ZM27.8026 49.6984C27.8026 48.688 27.1303 48.4093 26.7481 48.4093C26.4569 48.4093 26.1668 48.685 26.1668 49.6984C26.1668 50.7118 26.4569 50.923 26.7609 50.923C27.1313 50.925 27.8066 50.6672 27.8066 49.7004L27.8026 49.6984Z" fill="#F2ECE9"/>
<path d="M36.2321 52.8851C38.7244 52.8851 41.3702 51.1241 41.3702 47.8014C41.3702 45.1063 39.5354 42.6869 36.4619 42.6869C34.0299 42.6869 31.8585 44.2179 31.8585 46.6839C31.8585 48.0919 33.0972 48.1385 33.7854 48.1385C35.2994 48.1385 35.942 48.0007 36.6143 48.0007C37.0273 48.0007 37.2877 48.0919 37.2877 48.429C37.2877 49.5773 35.7737 50.2049 34.8409 50.2049C34.0913 50.2049 33.5101 49.9451 33.113 49.5465C32.8071 49.2411 32.608 49.134 32.3209 49.134C31.9387 49.134 31.7703 49.5009 31.7703 50.0681C31.7674 51.2163 33.5675 52.8851 36.2321 52.8851ZM36.7213 44.4935C37.3481 44.4935 37.761 45.3512 37.761 45.8411C37.761 46.5917 37.4095 46.8326 36.7213 46.8326C35.8806 46.8326 35.6816 46.5877 35.6816 45.8064C35.6816 45.3512 36.0796 44.4935 36.7213 44.4935Z" fill="#F2ECE9"/>
<path d="M47.5292 50.0375C47.5292 51.2769 48.6917 51.1282 48.6917 52.0742C48.6917 52.5789 48.2025 52.8674 47.7015 52.8674C47.1203 52.8674 46.4331 52.8208 45.836 52.8208C45.2389 52.8208 44.5062 52.8674 43.9249 52.8674C43.4506 52.8674 42.9614 52.5759 42.9614 52.0742C42.9614 51.1242 44.1081 51.2809 44.1081 50.0375V48.8278C44.1081 47.9353 43.5575 47.0508 42.8387 46.1326C41.6009 44.5402 40.5612 44.5551 40.5612 43.6666C40.5612 43.0717 41.0197 42.8555 41.6772 42.8555C42.2891 42.8555 42.6862 42.9318 43.2219 42.9318C44.014 42.9318 44.3527 42.8555 44.827 42.8555C45.4538 42.9011 45.9588 43.0697 45.9588 43.8818C45.9588 44.3557 45.6676 44.3409 45.6676 44.8466C45.6676 45.2432 46.035 46.1019 46.5093 46.1019C46.9222 46.1019 47.2737 45.2442 47.2737 44.8129C47.2737 44.3379 47.0906 44.3528 47.0906 43.8788C47.0906 43.1431 47.748 42.8376 48.2986 42.8376C48.8788 42.8376 48.8788 42.9289 49.3225 42.9289C49.8116 42.9289 49.9037 42.8525 50.3473 42.8525C50.8365 42.8525 51.1731 43.1133 51.1731 43.6458C51.1731 44.1783 50.6681 44.3964 50.1641 44.7792C49.5215 45.2531 47.5332 47.3057 47.5332 48.8218L47.5292 50.0375Z" fill="#F2ECE9"/>
<path d="M55.5142 52.9309C58.4352 52.9309 60.8662 50.4966 60.8662 47.5714C60.8662 44.3984 58.2214 42.6869 55.3003 42.6869C52.5178 42.6869 50.0859 44.6929 50.0859 47.6785C50.0859 50.8793 52.5634 52.9309 55.5142 52.9309ZM53.7863 48.9497C53.7863 48.0464 54.719 44.907 56.1261 44.907C56.9975 44.907 57.2579 45.5347 57.2579 46.2853C57.2579 47.5109 56.6153 50.5888 55.0409 50.5888C54.1685 50.5888 53.7863 49.7459 53.7863 48.9497Z" fill="#F2ECE9"/>
<path d="M67.3648 47.6022C67.3648 45.9641 66.7994 45.6884 66.2954 45.6884C65.7597 45.6884 65.0715 45.8411 65.0715 47.036V50.0375C65.0715 51.2621 65.8052 51.1282 65.8052 52.0742C65.8052 52.5789 65.3468 52.8675 64.8725 52.8675C64.3071 52.8675 64.0011 52.8209 63.4505 52.8209C62.8693 52.8209 62.0643 52.8675 61.4781 52.8675C61.0196 52.8675 60.5305 52.5759 60.5305 52.0742C60.5305 51.1243 61.585 51.2621 61.585 50.0375V45.5347C61.585 44.2794 60.576 44.5431 60.576 43.6824C60.576 43.024 61.1573 42.8554 61.7227 42.8554H62.9465C64.9794 42.8554 64.6437 44.0196 65.3616 44.0196C65.9428 44.0196 66.3865 42.8406 68.4312 42.8406C70.3264 42.8406 70.9384 44.2645 70.9384 46.0255V50.0375C70.9384 51.2621 71.7493 51.1282 71.7493 52.0742C71.7509 52.1788 71.7315 52.2827 71.6923 52.3797C71.6531 52.4766 71.5948 52.5647 71.5209 52.6387C71.447 52.7127 71.359 52.7711 71.2622 52.8103C71.1654 52.8496 71.0616 52.8691 70.9572 52.8675C70.3908 52.8675 70.0541 52.8209 69.1986 52.8209C68.5055 52.8209 68.1282 52.8675 67.5776 52.8675C67.0727 52.8675 66.6597 52.5759 66.6597 52.0742C66.6597 51.1243 67.3628 51.2809 67.3628 49.8838L67.3648 47.6022Z" fill="#F2ECE9"/>
<path d="M73.2673 45.5347C73.2673 44.2794 72.2276 44.5431 72.2276 43.6824C72.2276 43.024 72.793 42.8555 73.3594 42.8555C73.8792 42.8555 75.0714 42.9477 75.9131 42.9477C76.8458 42.9477 77.2736 42.9169 78.2519 42.9169C81.5245 42.9169 83.1613 44.9993 83.1613 47.8748C83.1613 50.095 81.5096 52.8516 79.0322 52.8516C77.9925 52.8516 76.9676 52.7752 75.9131 52.7752C74.9645 52.7752 74.0169 52.8674 73.0841 52.8674C72.6256 52.8674 72.1355 52.5759 72.1355 52.0742C72.1355 51.1242 73.2673 51.2809 73.2673 50.0375V45.5347ZM79.4758 47.97C79.4758 46.1941 78.9252 44.7395 77.0439 44.7395C76.7082 44.7395 76.6775 45.03 76.6617 45.6269C76.6468 46.4202 76.6161 47.5873 76.6161 47.9542C76.6161 48.6592 76.6617 49.6547 76.6924 49.853C76.7538 50.4658 76.7993 50.9715 77.5033 50.9715C78.9708 50.9715 79.4758 49.2561 79.4758 47.97Z" fill="#F2ECE9"/>
<path d="M19.7603 34.0523C19.7603 32.7157 18.6166 32.9923 18.6166 32.0801C18.6166 31.3791 19.2384 31.1996 19.8603 31.1996C20.1801 31.1996 20.4999 31.2809 20.9029 31.2809C21.306 31.2809 21.6604 31.1996 21.9922 31.1996C22.5982 31.1996 23.2537 31.3791 23.2537 32.0801C23.2537 32.9923 22.0932 32.7157 22.0932 34.0523V37.1172C22.0932 40.3447 20.1593 41.8767 17.3848 41.8767C14.6776 41.8767 12.3734 40.786 12.3734 37.2788V34.0523C12.3734 32.7157 11.2139 32.9923 11.2139 32.0801C11.2139 31.3791 11.8694 31.1996 12.4913 31.1996C12.7943 31.1996 13.5003 31.2809 14.2231 31.2809C14.8628 31.2809 15.5856 31.1996 15.9064 31.1996C16.5451 31.1996 17.167 31.3791 17.167 32.0801C17.167 32.9923 16.0233 32.7157 16.0233 34.0523V36.9705C16.0233 38.2744 16.5956 39.3671 17.7898 39.3671C19.0503 39.3671 19.7573 38.4053 19.7573 37.1172L19.7603 34.0523Z" fill="#F2ECE9"/>
<path d="M31.1772 36.2535C31.1772 34.5083 30.5544 34.2148 29.9999 34.2148C29.4117 34.2148 28.6552 34.3784 28.6552 35.6496V38.8455C28.6552 40.1495 29.4622 40.0027 29.4622 41.0132C29.4622 41.5516 28.9572 41.861 28.4363 41.861C27.8135 41.861 27.4778 41.8124 26.8718 41.8124C26.2332 41.8124 25.342 41.861 24.7033 41.861C24.1983 41.861 23.6606 41.5516 23.6606 41.0132C23.6606 40.0027 24.8211 40.1495 24.8211 38.8455V34.0522C24.8211 32.7155 23.7111 32.9922 23.7111 32.0799C23.7111 31.3788 24.3498 31.1994 24.9717 31.1994H26.3173C28.5542 31.1994 28.1838 32.4379 28.974 32.4379C29.6137 32.4379 30.1009 31.1825 32.3545 31.1825C34.4389 31.1825 35.1122 32.6986 35.1122 34.5737V38.8455C35.1122 40.1495 36.0034 40.0027 36.0034 41.0132C36.0034 41.5516 35.5657 41.861 35.129 41.861C34.5062 41.861 34.1389 41.8124 33.1952 41.8124C32.4387 41.8124 32.0179 41.861 31.4129 41.861C30.8574 41.861 30.4039 41.5516 30.4039 41.0132C30.4039 40.0027 31.1772 40.1653 31.1772 38.6819V36.2535Z" fill="#F2ECE9"/>
<path d="M37.667 34.0523C37.667 32.7157 36.5243 32.9923 36.5243 32.0801C36.5243 31.3791 37.1461 31.1996 37.768 31.1996C38.0878 31.1996 38.8106 31.2809 39.5166 31.2809C40.1563 31.2809 40.8791 31.1996 41.2158 31.1996C41.8208 31.1996 42.4595 31.3791 42.4595 32.0801C42.4595 32.9923 41.3158 32.7157 41.3158 34.0523V38.8456C41.3158 40.1654 42.5605 40.0028 42.5605 41.0132C42.5605 41.5516 42.0396 41.861 41.501 41.861C40.8791 41.861 40.1563 41.8124 39.5206 41.8124C38.8849 41.8124 38.1086 41.861 37.4699 41.861C36.9649 41.861 36.4272 41.5516 36.4272 41.0132C36.4272 40.0028 37.6709 40.1654 37.6709 38.8456L37.667 34.0523Z" fill="#F2ECE9"/>
<path d="M50.1612 38.8457C50.1612 40.1655 51.389 40.0029 51.389 41.0133C51.389 41.5517 50.8672 41.8611 50.3632 41.8611C49.7403 41.8611 48.9333 41.8125 48.2947 41.8125C47.656 41.8125 46.8816 41.8611 46.2598 41.8611C45.7558 41.8611 45.234 41.5517 45.234 41.0133C45.234 40.0029 46.4618 40.1655 46.4618 38.8457V35.5031C46.4618 34.1833 46.3945 33.5635 45.9736 33.5635C44.9835 33.5635 44.831 35.2264 43.6536 35.2264C42.9139 35.2264 42.5941 34.5581 42.5941 33.9374C42.5941 32.9587 43.4516 31.1332 44.6458 31.1332C45.8221 31.1332 46.6975 31.3315 48.2273 31.3315C49.774 31.3315 50.8018 31.1332 51.9603 31.1332C53.1377 31.1332 54.012 32.9587 54.012 33.9374C54.012 34.5571 53.6585 35.2264 52.9694 35.2264C51.792 35.2264 51.6237 33.5635 50.6315 33.5635C50.1948 33.5635 50.1612 34.1833 50.1612 35.5031V38.8457Z" fill="#F2ECE9"/>
<path d="M61.8474 38.8456C61.8474 40.1654 63.1258 40.0027 63.1258 41.0132C63.1258 41.5516 62.5871 41.861 62.0366 41.861C61.3979 41.861 60.6404 41.8124 59.9849 41.8124C59.3294 41.8124 58.5224 41.861 57.8827 41.861C57.3619 41.861 56.8232 41.5516 56.8232 41.0132C56.8232 40.0027 58.0847 40.1654 58.0847 38.8456V37.5565C58.0847 36.6105 57.4797 35.6655 56.6895 34.6869C55.327 32.9912 54.1833 33.0081 54.1833 32.0621C54.1833 31.4265 54.6883 31.1985 55.4112 31.1985C56.0835 31.1985 56.5212 31.2798 57.1094 31.2798C57.9837 31.2798 58.354 31.1985 58.8749 31.1985C59.568 31.2471 60.1195 31.4265 60.1195 32.2892C60.1195 32.7949 59.7997 32.779 59.7997 33.3165C59.7997 33.7409 60.2037 34.6531 60.7246 34.6531C61.1791 34.6531 61.5652 33.7409 61.5652 33.2838C61.5652 32.7791 61.3672 32.7949 61.3672 32.2922C61.3672 31.5098 62.09 31.1836 62.695 31.1836C63.3337 31.1836 63.3337 31.2828 63.8219 31.2828C64.3595 31.2828 64.4605 31.2014 64.9487 31.2014C65.4864 31.2014 65.8567 31.4781 65.8567 32.0492C65.8567 32.6035 65.3012 32.8425 64.7467 33.255C64.0407 33.7607 61.8544 35.9452 61.8544 37.5595L61.8474 38.8456Z" fill="#F2ECE9"/>
<path d="M77.3726 33.4335C78.3577 34.914 79.6588 36.157 81.1819 37.0726C83.0534 35.1688 83.7099 34.0801 83.7099 33.1281C83.7099 32.5153 83.3494 32.1415 82.6919 32.0057V25.7478H90.1184V32.0394C88.3776 32.6522 86.2428 34.4886 82.2691 37.6517C83.5168 38.2298 84.7981 38.5699 86.0131 38.5699C88.0162 38.5699 88.9688 37.6854 88.9688 35.6785C88.9688 35.3384 88.9361 34.9645 88.9024 34.6244H90.5452C90.5778 34.9308 90.6105 35.6785 90.6105 36.8347C90.6105 42.1069 88.9361 44.6235 84.9298 44.6235C81.9414 44.6235 78.8896 43.0251 76.2923 40.678C75.4715 43.5011 73.4356 44.6235 70.4799 44.6235C66.2112 44.6235 64.208 42.447 64.208 38.5352C64.208 35.1004 66.2438 32.4479 70.3472 31.9035C69.9963 30.8851 69.8081 29.8176 69.7897 28.7404C69.7897 24.3874 71.5047 21.3958 75.6428 21.3958C79.6164 21.3958 81.5463 24.4885 81.5463 27.9917C81.5433 31.3592 79.6382 32.9923 77.3726 33.4335ZM74.9754 39.383C73.2019 37.5119 71.7563 35.3701 70.8374 33.2273C70.4759 34.0771 70.1442 34.9953 70.1442 36.2883C70.1442 38.329 71.0968 39.5526 73.6257 39.5526C74.0805 39.5497 74.5335 39.4938 74.9754 39.386V39.383ZM76.8142 32.3765C78.3905 31.9343 79.1787 30.7444 79.1787 29.1459C79.1787 28.1593 78.8173 27.377 77.6677 27.377C76.6498 27.377 76.0586 28.0235 76.0586 29.2471C76.0619 30.3361 76.3207 31.4091 76.8142 32.3795V32.3765Z" fill="#F2ECE9"/>
<path d="M42.3981 28.6699C40.3623 28.6699 38.574 28.2029 38.574 26.0095C38.574 25.6327 38.772 25.2559 39.2216 25.2559C39.7167 25.2559 40.2325 26.2475 40.5702 26.4895C41 26.7897 41.5106 26.9525 42.0347 26.9565C42.5149 26.9565 42.6961 26.7364 42.6961 26.5023C42.6961 25.4771 38.6779 25.6456 38.6779 22.5817C38.6779 21.0943 40.1038 19.9857 42.2941 19.9857C44.0309 19.9857 45.6905 20.2713 45.6905 21.9074C45.6905 22.3873 45.4182 22.7899 44.926 22.7899C43.9665 22.7899 43.7457 21.6734 42.5664 21.6734C42.2298 21.6734 41.9446 21.8033 41.9446 22.0502C41.9446 22.8028 43.6031 22.7373 45.0558 23.6466C45.7558 24.0879 46.0539 24.6074 46.0539 25.3323C46.0539 27.3462 44.2517 28.6699 42.3981 28.6699Z" fill="#F2ECE9"/>
<path d="M52.3921 22.4002C52.3921 21.3363 51.5108 21.5564 51.5108 20.8296C51.5108 20.2713 51.9911 20.1285 52.4703 20.1285C52.7169 20.1285 52.9654 20.194 53.2744 20.194C53.5833 20.194 53.8576 20.1285 54.117 20.1285C54.5834 20.1285 55.0894 20.2713 55.0894 20.8296C55.0894 21.5564 54.1982 21.3363 54.1982 22.4002V24.8405C54.1982 27.4116 52.7129 28.6312 50.5691 28.6312C48.4818 28.6312 46.7074 27.7616 46.7074 24.9704V22.4002C46.7074 21.3363 45.8162 21.5564 45.8162 20.8296C45.8162 20.2713 46.3212 20.1285 46.8015 20.1285C47.0342 20.1285 47.5788 20.194 48.1362 20.194C48.6313 20.194 49.1868 20.1285 49.4324 20.1285C49.9275 20.1285 50.4048 20.2713 50.4048 20.8296C50.4048 21.5564 49.5235 21.3363 49.5235 22.4002V24.7245C49.5235 25.7626 49.9641 26.6322 50.885 26.6322C51.8574 26.6322 52.401 25.8667 52.401 24.8405L52.3921 22.4002Z" fill="#F2ECE9"/>
<path d="M56.3588 22.4002C56.3588 21.3363 55.4775 21.5564 55.4775 20.8296C55.4775 20.2713 55.9568 20.1285 56.437 20.1285C56.6836 20.1285 57.2411 20.194 57.7847 20.194C58.2798 20.194 58.8353 20.1285 59.0947 20.1285C59.5611 20.1285 60.0532 20.2713 60.0532 20.8296C60.0532 21.5564 59.1719 21.3363 59.1719 22.4002V26.2168C59.1719 27.2679 60.1314 27.139 60.1314 27.9431C60.1314 28.3715 59.7294 28.6184 59.3145 28.6184C58.8353 28.6184 58.2778 28.5797 57.7847 28.5797C57.2916 28.5797 56.6955 28.6184 56.2004 28.6184C55.8112 28.6184 55.3973 28.3715 55.3973 27.9431C55.3973 27.139 56.3558 27.2679 56.3558 26.2168L56.3588 22.4002Z" fill="#F2ECE9"/>
<path d="M65.9904 26.2168C65.9904 27.2679 66.937 27.139 66.937 27.9431C66.937 28.3715 66.535 28.6184 66.1449 28.6184C65.6646 28.6184 65.0428 28.5797 64.5497 28.5797C64.0565 28.5797 63.4604 28.6184 62.9812 28.6184C62.592 28.6184 62.189 28.3715 62.189 27.9431C62.189 27.139 63.1347 27.2679 63.1347 26.2168V23.5554C63.1347 22.5043 63.0832 22.0105 62.7594 22.0105C61.994 22.0105 61.8771 23.3352 60.9701 23.3352C60.3998 23.3352 60.1532 22.8028 60.1532 22.309C60.1532 21.5306 60.8146 20.0769 61.7375 20.0769C62.6604 20.0769 63.3218 20.2326 64.4992 20.2326C65.6765 20.2326 66.4796 20.0769 67.3767 20.0769C68.2738 20.0769 68.961 21.5306 68.961 22.309C68.961 22.8048 68.6897 23.3352 68.1579 23.3352C67.2499 23.3352 67.1202 22.0105 66.3558 22.0105C66.0191 22.0105 65.9924 22.5063 65.9924 23.5554L65.9904 26.2168Z" fill="#F2ECE9"/>
</svg>
